<svg width="550" height="350" viewBox="0 0 550 350" fill="none" xmlns="http://www.w3.org/2000/svg">
<path d="M360.436 121.855H43.6585C39.4124 121.855 35.958 118.454 35.958 114.274V7.81457C35.958 3.63442 39.4124 0.233643 43.6585 0.233643H360.436C364.682 0.233643 368.136 3.63442 368.136 7.81457V114.274C368.136 118.454 364.682 121.855 360.436 121.855ZM43.6585 1.13746C39.9187 1.13746 36.8761 4.13289 36.8761 7.81457V114.274C36.8761 117.956 39.9187 120.951 43.6585 120.951H360.436C364.176 120.951 367.218 117.956 367.218 114.274V7.81457C367.218 4.13289 364.176 1.13746 360.436 1.13746H43.6585Z" fill="#3F3D56"/>
<path d="M390.654 249.034H0V249.795H390.654V249.034Z" fill="#E6E6E6"/>
<path d="M390.654 210.17H0V210.931H390.654V210.17Z" fill="#E6E6E6"/>
<path d="M178.032 125.77C178.313 129.241 180.359 131.911 182.603 131.735C184.846 131.559 186.437 128.603 186.156 125.131C186.063 123.743 185.633 122.397 184.904 121.205L183.526 106.515L176.538 107.298L178.637 121.697C178.108 122.988 177.901 124.384 178.032 125.77Z" fill="#FFB6B6"/>
<path d="M169.683 57.2342C169.683 57.2342 176.216 53.8295 179.529 58.9173C182.842 64.0051 185.128 119.031 185.128 119.031L175.946 119.996L174.206 81.2207L169.683 57.2342Z" fill="#E6E6E6"/>
<path d="M156.124 207.3L161.443 207.299L163.973 187.101L156.123 187.102L156.124 207.3Z" fill="#FFB6B6"/>
<path d="M174.348 207.181C174.513 207.455 174.601 208.342 174.601 208.661C174.601 209.643 173.792 210.438 172.795 210.438H156.323C155.643 210.438 155.091 209.895 155.091 209.226V208.551C155.091 208.551 154.277 206.521 155.954 204.02C155.954 204.02 158.039 205.979 161.155 202.911L162.074 201.273L168.725 206.061L172.411 206.508C173.218 206.606 173.933 206.493 174.348 207.181Z" fill="#2F2E41"/>
<path d="M186.904 206.433L192.058 205.136L189.432 184.95L181.826 186.864L186.904 206.433Z" fill="#FFB6B6"/>
<path d="M204.531 201.877C204.761 202.103 205.068 202.94 205.148 203.25C205.395 204.201 204.812 205.169 203.846 205.412L187.886 209.425C187.227 209.591 186.557 209.199 186.388 208.551L186.218 207.896C186.218 207.896 184.919 206.129 185.916 203.297C185.916 203.297 188.428 204.686 190.676 200.955L191.154 199.144L198.802 202.163L202.486 201.697C203.292 201.595 203.956 201.312 204.531 201.877Z" fill="#2F2E41"/>
<path d="M151.724 52.8922L151.471 51.0905L154.469 43.8835L162.705 42.9826L164.483 53.3004L151.724 52.8922Z" fill="#FFB6B6"/>
<path d="M151.724 52.8922L151.471 51.0905L154.469 43.8835L162.705 42.9826L164.483 53.3004L151.724 52.8922Z" fill="black"/>
<path d="M142.115 103.792L138.455 113.701L141.2 119.107L154.926 197.483H164.052L162.247 128.115L183.294 197.483H192.326L185.063 150.637L179.634 107.395L176.341 105.392L160.417 96.5847L142.115 103.792Z" fill="#2F2E41"/>
<path d="M165.45 110.548L159.959 111.449L152.639 94.3325H169.11L165.45 110.548Z" fill="#E6E6E6"/>
<path d="M176.431 106.044L165.45 110.548L161.789 102.44L159.959 111.449L140.743 105.359L143.488 94.3325L140.743 58.2975L150.433 51.9373L151.724 51.0905L163.62 51.9914L164.663 52.5499L171.855 56.4957L173.686 86.2246L176.431 106.044Z" fill="#2F2E41"/>
<path d="M164.663 52.5499L159.502 74.0628L150.433 51.9373L151.724 51.0905L163.62 51.9914L164.663 52.5499Z" fill="#E6E6E6"/>
<path d="M155.841 51.0905L154.011 54.1935L155.841 55.2278L154.926 74.1188L158.587 79.0176L162.247 71.7773L159.502 55.2278L160.417 51.0905H155.841Z" fill="#2F2E41"/>
<path d="M158.587 49.2887C163.388 49.2887 167.28 45.4571 167.28 40.7304C167.28 36.0038 163.388 32.1721 158.587 32.1721C153.786 32.1721 149.893 36.0038 149.893 40.7304C149.893 45.4571 153.786 49.2887 158.587 49.2887Z" fill="#FFB6B6"/>
<path d="M153.031 41.4811L154.909 42.2882L155.729 37.446C155.729 37.446 159.008 35.8319 161.468 36.6389C163.927 37.446 168.026 36.6389 168.026 36.6389C168.026 36.6389 168.026 28.5686 162.287 28.5686C156.549 28.5686 150.811 29.3756 150.811 31.7967C150.811 34.2178 148.351 36.6389 148.351 36.6389C148.351 36.6389 145.072 41.4812 148.351 44.7093C151.63 47.9374 153.27 47.9374 153.27 47.9374L153.031 41.4811Z" fill="#2F2E41"/>
<path d="M136.163 125.517C136.068 128.997 137.814 131.867 140.064 131.926C142.314 131.985 144.215 129.212 144.309 125.731C144.367 124.341 144.085 122.957 143.488 121.696L143.703 106.945L136.669 106.993L137.204 121.53C136.539 122.758 136.182 124.125 136.163 125.517Z" fill="#FFB6B6"/>
<path d="M144.865 56.4788C144.865 56.4788 138.917 54.6771 136.172 60.0824C133.426 65.4876 137.087 120.441 137.087 120.441H146.32L143.87 81.7034L144.865 56.4788Z" fill="#E6E6E6"/>
<path d="M373.038 158.857L350.857 152.172C350.366 152.024 349.851 151.97 349.34 152.013L236.921 161.432C235.319 161.566 234.916 163.695 236.362 164.388L239.963 166.115H239.867V248.793H243.26V167.697L254.546 173.11C255.409 173.524 256.373 173.693 257.329 173.598L258.529 173.478V248.793H261.922V173.141L348.873 164.494V248.793H352.266V164.157L366.687 162.723V248.793H370.08V162.385L372.711 162.124C374.558 161.94 374.813 159.392 373.038 158.857Z" fill="#3F3D56"/>
<path d="M269.557 161.105C271.678 161.105 303.065 157.347 303.065 157.347L307.73 163.61L275.071 169.873L269.557 161.105Z" fill="white"/>
<path d="M304.005 245.582L298.552 245.572L295.994 224.861L304.042 224.875L304.005 245.582Z" fill="#A0616A"/>
<path d="M285.322 245.428C285.152 245.71 285.061 246.618 285.06 246.945C285.058 247.952 285.885 248.769 286.908 248.771L303.795 248.799C304.492 248.8 305.059 248.245 305.06 247.558L305.061 246.866C305.061 246.866 305.9 244.787 304.185 242.22C304.185 242.22 302.043 244.224 298.855 241.074L297.916 239.393L291.089 244.29L287.309 244.742C286.482 244.841 285.749 244.724 285.322 245.428Z" fill="#2F2E41"/>
<path d="M333.272 235.951L328.969 239.145L314.405 224.329L320.754 219.613L333.272 235.951Z" fill="#A0616A"/>
<path d="M318.459 246.801C318.495 247.123 318.973 247.892 319.171 248.15C319.78 248.944 320.927 249.102 321.733 248.503L335.056 238.609C335.606 238.2 335.716 237.43 335.301 236.888L334.882 236.342C334.882 236.342 334.284 234.211 331.377 233.196C331.377 233.196 330.904 236.033 326.483 235.423L324.724 234.65L322.313 242.518L319.608 245.094C319.016 245.657 318.368 245.996 318.459 246.801Z" fill="#2F2E41"/>
<path d="M321.875 128.91C321.875 133.86 317.799 137.873 312.77 137.873C307.741 137.873 303.665 133.86 303.665 128.91C303.665 123.959 307.741 119.946 312.77 119.946C317.799 119.946 321.875 123.959 321.875 128.91Z" fill="#A0616A"/>
<path d="M321.017 180.593C321.017 180.593 287.493 178.725 285.596 182.461C283.698 186.197 295.854 237.518 295.854 237.518L306.7 235.281L301.409 199.274C301.409 199.274 329.384 206.568 333.179 197.85C336.974 189.132 335.882 185.886 335.882 185.886L321.017 180.593Z" fill="#2F2E41"/>
<path d="M329.607 174.321C329.607 174.321 296.775 181.25 295.949 185.348C295.123 189.445 320.636 235.772 320.636 235.772L330.494 230.79L315.716 197.444C315.716 197.444 344.655 197.192 345.972 187.796C347.29 178.401 345.364 175.555 345.364 175.555L329.607 174.321Z" fill="#2F2E41"/>
<path d="M333.352 139.183H317.578L306.785 156.619C306.785 156.619 304.255 167.886 306.785 169.102C309.316 170.318 309.316 183.395 309.316 183.395L335.882 185.886C335.882 185.886 339.677 146.655 338.412 142.919C337.147 139.183 333.352 139.183 333.352 139.183Z" fill="#1D84B5"/>
<path d="M308.367 150.703L306.785 169.102L288.999 161.671L284.754 159.569C283.923 158.502 282.844 157.646 281.607 157.073C278.533 155.598 275.269 155.963 274.316 157.889C273.363 159.814 275.081 162.57 278.155 164.045C279.375 164.65 280.725 164.96 282.092 164.947L294.512 171.892L294.527 171.864L294.582 171.961L314.06 179.97L318.541 155.816L308.367 150.703Z" fill="#A0616A"/>
<path d="M306.469 130.153C306.469 130.153 296.981 131.399 300.776 123.304C300.776 123.304 300.198 118.915 303.017 118.619C305.837 118.322 309.632 113.34 309.632 113.34C309.632 113.34 318.333 108.981 322.838 113.34C327.343 117.699 340.626 143.23 340.626 143.23L331.77 152.571C331.77 152.571 326.447 138.793 320.253 140.389C314.06 141.985 308.367 146.743 308.367 146.743C308.367 146.743 302.081 143.647 304.908 140.948C307.734 138.249 306.469 130.153 306.469 130.153Z" fill="#2F2E41"/>
<path d="M319.12 143.853C319.12 143.853 314.692 138.249 311.529 142.608C308.367 146.967 305.837 152.571 305.837 152.571L318.487 156.93L319.12 143.853Z" fill="#1D84B5"/>
<path d="M367.152 247.553L352.455 201.562L352.457 201.562H352.491L352.43 201.485L351.383 198.21C352.978 196.857 354.064 194.923 354.281 192.697L347.562 156.319C348.024 151.542 344.305 147.367 339.431 147.196L324.272 147.158C319.963 147.008 316.23 150.073 315.603 154.273L310.623 187.607C310.453 188.726 310.521 189.829 310.789 190.86L307.446 191.29L306.432 191.424L302.424 191.937L302.412 191.942L301.911 192.004H301.368V205.366H301.402V248.074C301.402 248.35 301.631 248.576 301.911 248.576C302.195 248.576 302.424 248.35 302.424 248.074V205.366H308.371L314.305 248.024C314.343 248.275 314.559 248.459 314.814 248.459C314.835 248.459 314.86 248.459 314.882 248.454C315.161 248.417 315.357 248.162 315.318 247.886L309.406 205.366H337.938C340.771 205.366 343.396 204.481 345.534 202.966L356.847 247.946C356.906 248.174 357.113 248.325 357.341 248.325C357.383 248.325 357.426 248.32 357.468 248.309C357.741 248.241 357.906 247.967 357.837 247.698L346.415 202.283C346.567 202.158 346.719 202.025 346.862 201.888L351.403 201.625L366.178 247.855C366.246 248.07 366.448 248.207 366.665 248.207C366.716 248.207 366.767 248.2 366.818 248.184C367.088 248.1 367.237 247.818 367.152 247.553ZM350.412 198.923C350.451 198.902 350.484 198.877 350.518 198.856L350.628 199.198L350.412 198.923Z" fill="#E6E6E6"/>
<path d="M78.7544 169.597L88.6462 163.404L92.6677 165.792L78.7544 181.531V169.597Z" fill="#FFB6B6"/>
<path d="M65.2276 145.627C65.2276 145.627 58.6575 147.149 61.7493 155.9C64.8411 164.651 74.8896 182.914 77.9815 181.772C81.0733 180.631 81.4598 169.217 81.4598 169.217C81.4598 169.217 81.0733 169.597 79.5274 168.075C77.9815 166.553 77.9815 167.248 77.9815 165.569C77.9815 163.89 76.717 162.645 76.717 162.645L75.2761 159.705C75.2761 159.705 75.2761 146.007 69.4789 145.246C63.6817 144.486 65.2276 145.627 65.2276 145.627Z" fill="#E6E6E6"/>
<path d="M95.9236 165.383C98.4894 162.857 99.2847 159.545 97.7 157.985C96.1152 156.424 92.7505 157.207 90.1847 159.733C87.6189 162.259 86.8236 165.572 88.4084 167.132C89.9931 168.692 93.3578 167.909 95.9236 165.383Z" fill="#FFB6B6"/>
<path d="M39.6368 196.041L46.3864 207.039L85.7208 204.748L75.2472 191.458L39.6368 196.041Z" fill="#E6E6E6"/>
<path d="M51.39 247.481C51.1608 247.481 50.9613 247.315 50.9293 247.085L39.1756 162.575C39.1407 162.324 39.3189 162.093 39.5736 162.059C39.8281 162.023 40.0629 162.2 40.0979 162.451L51.8517 246.961C51.8866 247.212 51.7084 247.443 51.4537 247.477C51.4322 247.48 51.411 247.481 51.39 247.481Z" fill="#E6E6E6"/>
<path d="M39.6368 247.589C39.3797 247.589 39.1713 247.383 39.1713 247.13V162.529C39.1713 162.276 39.3797 162.071 39.6368 162.071C39.8938 162.071 40.1023 162.276 40.1023 162.529V247.13C40.1023 247.383 39.8938 247.589 39.6368 247.589Z" fill="#E6E6E6"/>
<path d="M98.6382 247.252C98.4403 247.252 98.2568 247.127 98.1943 246.931L70.3809 159.901C70.3038 159.66 70.44 159.402 70.6853 159.326C70.9304 159.251 71.1919 159.385 71.269 159.626L99.0823 246.656C99.1595 246.898 99.0232 247.155 98.778 247.231C98.7315 247.245 98.6844 247.252 98.6382 247.252Z" fill="#E6E6E6"/>
<path d="M90.1427 247.359C89.9348 247.359 89.7455 247.222 89.6918 247.014L70.3738 170.204C70.3105 169.959 70.4611 169.709 70.7102 169.647C70.9601 169.585 71.2127 169.733 71.2761 169.978L90.5942 246.788C90.6575 247.033 90.5069 247.283 90.2578 247.345C90.2193 247.355 90.1806 247.359 90.1427 247.359Z" fill="#E6E6E6"/>
<path d="M39.6368 163.877L71.8723 163.389L77.8074 196.728H40.1023L39.6368 163.877Z" fill="#E6E6E6"/>
<path d="M89.1748 212.9L81.0508 226.98L90.4834 229.025L94.4159 219.01L89.1748 212.9Z" fill="#FFB6B6"/>
<path d="M83.9688 224.322C83.9688 224.322 83.6531 222.026 81.7972 222.755C79.9413 223.483 74.5852 226.191 74.5852 226.191C74.5852 226.191 88.5553 248.538 91.2065 247.497C93.8578 246.456 90.684 240.139 90.684 240.139L91.3845 228.974L83.9688 224.322Z" fill="#2F2E41"/>
<path d="M53.2467 185.577C53.2467 185.577 50.3481 198.704 59.2372 203.27C68.1262 207.835 98.4649 196.611 98.4649 196.611L84.5516 217.135L94.2136 220.962C94.2136 220.962 116.243 192.426 114.697 187.86C113.151 183.294 102.716 182.914 102.716 182.914L79.1409 184.055L72.9572 182.153L53.2467 185.577Z" fill="#2F2E41"/>
<path d="M77.1562 219.149L64.3846 229.354L72.4149 234.637L79.7795 226.718L77.1562 219.149Z" fill="#FFB6B6"/>
<path d="M68.0851 227.923C68.0851 227.923 68.6398 225.671 66.6418 225.685C64.6438 225.699 58.6539 226.303 58.6539 226.303C58.6539 226.303 63.4063 252.123 66.2605 252.103C69.1148 252.083 68.4935 245.062 68.4935 245.062L73.2732 234.912L68.0851 227.923Z" fill="#2F2E41"/>
<path d="M53.7902 180.829C53.7902 180.829 46.2384 192.017 52.8305 199.454C59.4225 206.891 91.83 207.305 91.83 207.305L71.2846 221.437L78.8696 228.463C78.8696 228.463 109.936 209.775 110.184 204.969C110.432 200.162 100.853 196.07 100.853 196.07L78.4716 188.688L73.4151 184.7L53.7902 180.829Z" fill="#2F2E41"/>
<path d="M73.19 154.914C73.19 154.914 65.8469 152.251 62.3686 152.251C62.0362 152.251 61.7077 152.289 61.3792 152.358C59.1531 152.822 57.1047 154.705 56.1231 155.733C55.7405 156.136 55.5202 156.406 55.5202 156.406C55.5202 156.406 55.5434 156.143 55.5897 155.683C55.8178 153.263 56.6603 145.323 58.1714 140.239C58.7125 138.425 59.3347 136.975 60.0497 136.271C61.7154 134.627 62.4845 132.656 62.8401 131.188C63.1415 129.928 63.1415 129.042 63.1415 129.042L60.3241 127.847L59.8024 124.491C59.7096 124.887 59.2806 125.659 57.8391 127.14C57.7154 127.265 57.5801 127.372 57.4371 127.463C55.3578 128.749 51.1182 126.512 48.834 125.104C49.7848 121.851 51.5085 118.876 54.639 118.389C61.9821 117.247 61.9821 113.062 66.6199 117.628C67.0025 118.004 67.3889 118.366 67.7754 118.716C69.2595 121.508 69.8006 125.252 69.9938 127.855C70.133 129.677 70.0982 130.944 70.0982 130.944C70.0982 130.944 72.0306 142.359 75.1224 144.642C78.2143 146.924 73.19 154.914 73.19 154.914Z" fill="#2F2E41"/>
<path d="M58.8903 136.651L53.6682 144.192L65.4604 147.305V136.651H58.8903Z" fill="#FFB6B6"/>
<path d="M58.8903 136.651L53.6682 144.192L65.4604 147.305V136.651H58.8903Z" fill="black"/>
<path d="M66.1938 143.915L54.9859 139.349C54.9859 139.349 39.9132 145.817 41.0726 158.373C42.2321 170.929 53.0535 192.616 53.0535 192.616L74.6964 183.485L72.3775 159.134L66.1938 143.915Z" fill="#E6E6E6"/>
<path d="M61.3883 140.018C66.8494 140.018 71.2764 135.66 71.2764 130.284C71.2764 124.907 66.8494 120.549 61.3883 120.549C55.9273 120.549 51.5002 124.907 51.5002 130.284C51.5002 135.66 55.9273 140.018 61.3883 140.018Z" fill="#FFB6B6"/>
<path d="M74.7359 126.759C72.8035 128.661 71.2576 130.564 71.2576 130.564L70.4847 127.52C70.4847 127.52 70.3069 127.649 69.9938 127.855C68.7687 128.677 65.4797 130.743 62.8401 131.188C61.6652 131.386 60.6217 131.26 59.9415 130.564C58.4999 129.084 58.0709 128.311 57.9782 127.916L57.4564 131.272L54.639 132.466C54.639 132.466 54.639 136.644 57.7308 139.695C57.8816 139.844 58.0284 140.026 58.1714 140.239C59.6478 142.431 60.7067 147.796 61.3792 152.358C61.9744 156.414 62.2604 159.83 62.2604 159.83C62.2604 159.83 59.3347 156.223 56.1231 155.733C55.9453 155.706 55.7675 155.687 55.5897 155.683C55.5318 155.675 55.4699 155.675 55.412 155.675C51.9336 155.675 44.5905 158.339 44.5905 158.339C44.5905 158.339 39.5663 150.349 42.6581 148.066C45.75 145.783 47.6824 134.369 47.6824 134.369C47.6824 134.369 47.5548 129.483 48.834 125.104C49.7848 121.851 51.5085 118.876 54.639 118.389C61.9821 117.247 61.9821 113.062 66.6199 117.628C67.0025 118.004 67.3889 118.366 67.7754 118.716C72.0963 122.627 76.5099 125.013 74.7359 126.759Z" fill="#2F2E41"/>
<path d="M31.3676 177.833H27.6954V249.235H31.3676V177.833Z" fill="#3F3D56"/>
<path d="M120.42 177.833H116.748V249.235H120.42V177.833Z" fill="#3F3D56"/>
<path d="M97.0096 147.555H72.6808V171.507H97.0096V147.555Z" fill="#1D84B5"/>
<path d="M58.6575 173.021L68.5492 166.829L72.5707 169.217L58.6575 184.956V173.021Z" fill="#FFB6B6"/>
<path d="M45.1307 149.051C45.1307 149.051 38.5605 150.573 41.6524 159.324C44.7442 168.075 54.7927 186.338 57.8845 185.197C60.9763 184.055 61.3628 172.641 61.3628 172.641C61.3628 172.641 60.9763 173.021 59.4304 171.5C57.8845 169.978 57.8845 170.673 57.8845 168.993C57.8845 167.314 56.6201 166.069 56.6201 166.069L55.1791 163.129C55.1791 163.129 55.1791 149.432 49.382 148.671C43.5848 147.91 45.1307 149.051 45.1307 149.051Z" fill="#E6E6E6"/>
<path d="M75.8267 168.807C78.3925 166.282 79.1878 162.969 77.603 161.409C76.0182 159.849 72.6536 160.632 70.0878 163.158C67.5219 165.684 66.7267 168.996 68.3114 170.556C69.8962 172.116 73.2609 171.333 75.8267 168.807Z" fill="#FFB6B6"/>
<path d="M127.765 175.122H16.6785V183.256H127.765V175.122Z" fill="#3F3D56"/>
<path d="M240.628 110.047H224.222C222.921 110.047 221.867 111.085 221.867 112.365V119.027C221.867 120.307 222.921 121.345 224.222 121.345H240.628C241.928 121.345 242.983 120.307 242.983 119.027V112.365C242.983 111.085 241.928 110.047 240.628 110.047Z" fill="#3F3D56"/>
<path d="M275.055 116.708H258.649C257.349 116.708 256.295 117.746 256.295 119.027C256.295 120.307 257.349 121.345 258.649 121.345H275.055C276.356 121.345 277.41 120.307 277.41 119.027C277.41 117.746 276.356 116.708 275.055 116.708Z" fill="#1D84B5"/>
<path d="M541.736 314.269H328.669C324.112 314.269 320.405 310.546 320.405 305.969V280.211H550V305.969C550 310.546 546.293 314.269 541.736 314.269Z" fill="#E6E6E6"/>
<path d="M462.778 309.961H408.444V348.944H462.778V309.961Z" fill="#E6E6E6"/>
<path d="M466.047 344.019H405.175V348.944H466.047V344.019Z" fill="#E6E6E6"/>
<path d="M549.796 291.085H320.405V160.136C320.405 156.995 322.949 154.439 326.076 154.439H544.125C547.252 154.439 549.796 156.995 549.796 160.136V291.085Z" fill="#3F3D56"/>
<path d="M544.28 160.389H325.716V283.904H544.28V160.389Z" fill="white"/>
<path d="M368.044 234.007C369.716 232.619 371.786 232.36 372.665 233.43C373.545 234.499 372.901 236.491 371.228 237.88C370.567 238.444 369.781 238.841 368.936 239.037L361.774 244.83L359.139 241.396L366.479 236.05C366.831 235.253 367.367 234.553 368.044 234.007Z" fill="#FFB6B6"/>
<path d="M326.649 247.077C326.645 246.821 326.647 244.586 328.294 243.174C330.186 241.552 332.856 242.208 333.793 242.439C335.956 242.971 336.133 243.903 338.164 244.86C341.965 246.652 337.203 245.735 339.464 245.16C340.247 244.962 351.508 244.177 354.311 242.444C359.763 239.074 363.478 237.03 363.478 237.03L365.906 241.908C365.906 241.908 362.395 246.812 357.453 250.445C352.383 254.172 349.849 256.035 345.997 256.755C345.665 256.817 337.507 258.217 330.936 253.286C329.438 252.161 326.691 250.1 326.649 247.077Z" fill="#1D84B5"/>
<path d="M334.181 234.671C338.853 234.671 342.641 230.867 342.641 226.174C342.641 221.481 338.853 217.677 334.181 217.677C329.509 217.677 325.722 221.481 325.722 226.174C325.722 230.867 329.509 234.671 334.181 234.671Z" fill="#FFB6B6"/>
<path d="M400.431 283.259L391.719 274.302L387.222 279.014L393.712 287.602L400.15 288.341L400.431 283.259Z" fill="#FFB6B6"/>
<path d="M350.686 266.462C351.195 266.505 352.815 266.831 354.362 265.975C355.419 265.391 355.96 264.524 356.143 264.248C358.413 260.823 367.126 255.483 374.945 255.155C376.716 255.08 377.881 255.287 378.94 255.841C380.443 256.628 381.042 257.754 382.948 260.393C383.991 261.837 385.145 263.197 386.2 264.632C392.378 273.029 394.72 273.689 394.481 276.381C394.215 279.368 391.008 282.202 388.876 281.875C388.003 281.741 387.665 281.131 386.499 279.897C383.079 276.277 381.664 276.946 379.229 274.174C376.387 270.938 376.759 268.254 375.276 268.15C373.9 268.054 373.316 270.344 370.38 273.385C369.036 274.776 368.079 275.415 365.164 277.446C353.814 285.355 353.632 285.911 351.342 286.542C350.339 286.818 343.226 288.777 340.692 285.66C336.726 280.781 346.094 266.079 350.686 266.462Z" fill="#2F2E41"/>
<path d="M397.767 285.283C398.408 284.994 399.157 284.656 399.398 283.879C399.561 283.353 399.467 282.705 399.13 282.257C398.741 281.74 398.166 281.672 398.189 281.581C398.224 281.441 399.586 281.496 401.08 282.026C401.362 282.127 402.64 282.595 404.265 283.87C405.567 284.891 405.392 285.096 406.209 285.684C408.715 287.492 411.066 286.067 412.422 287.762C412.945 288.416 413.169 289.345 412.948 290.096C412.506 291.604 410.355 292.123 409.179 292.391C406.348 293.036 404.204 292.509 401.967 292.131C394.356 290.842 390.08 292.016 389.507 290.245C389.399 289.909 389.575 289.938 390.162 287.478C390.741 285.05 390.722 284.384 391.215 284.189C391.958 283.897 392.456 285.228 394.327 285.683C395.984 286.087 397.352 285.47 397.767 285.283Z" fill="#2F2E41"/>
<path d="M384.943 312.561L382.741 300.236L376.386 301.598L376.955 312.366L381.869 316.609L384.943 312.561Z" fill="#FFB6B6"/>
<path d="M353.171 270.605C353.569 270.928 354.727 272.111 356.486 272.276C357.686 272.389 358.62 271.976 358.925 271.851C362.718 270.298 372.912 270.793 379.566 274.932C381.073 275.869 381.922 276.697 382.488 277.753C383.292 279.251 383.158 280.522 383.26 283.781C383.316 285.563 383.51 287.339 383.581 289.122C383.998 299.555 385.568 301.421 383.865 303.514C381.975 305.836 377.737 306.372 376.156 304.899C375.508 304.296 375.569 303.6 375.294 301.921C374.488 296.998 372.943 296.753 372.478 293.086C371.935 288.804 373.744 286.794 372.574 285.871C371.49 285.016 369.727 286.581 365.597 287.441C363.707 287.835 362.559 287.823 359.011 287.86C345.197 288.002 344.736 288.36 342.488 287.59C341.505 287.253 334.523 284.862 334.169 280.853C333.615 274.58 349.586 267.698 353.171 270.605Z" fill="#2F2E41"/>
<path d="M381.607 312.734C382.299 312.856 383.108 312.999 383.741 312.492C384.17 312.149 384.455 311.56 384.427 310.999C384.394 310.352 383.955 309.971 384.026 309.908C384.133 309.813 385.229 310.626 386.169 311.908C386.346 312.15 387.141 313.258 387.774 315.23C388.28 316.809 388.021 316.879 388.367 317.827C389.431 320.736 392.173 320.884 392.347 323.051C392.415 323.888 392.08 324.782 391.478 325.279C390.269 326.277 388.199 325.493 387.076 325.052C384.373 323.989 382.894 322.344 381.254 320.768C375.676 315.41 371.482 313.969 371.999 312.181C372.096 311.842 372.226 311.965 374.087 310.261C375.923 308.578 376.28 308.016 376.797 308.133C377.575 308.31 377.243 309.693 378.536 311.125C379.682 312.394 381.159 312.655 381.607 312.734Z" fill="#2F2E41"/>
<path d="M335.335 227.798C335.664 226.615 335.25 226.184 335.672 225.653C335.672 225.653 335.842 225.439 337.358 224.862C336.911 222.254 337.246 221.813 337.246 221.813C337.632 221.305 338.406 221.182 338.932 221.249C340.046 221.389 340.243 222.401 340.956 222.378C341.941 222.347 343.121 220.367 342.755 218.651C342.456 217.252 341.167 216.213 340.844 216.393C340.523 216.572 339.37 215.783 338.932 215.941C338.634 216.049 337.227 215.906 336.909 216.054C336.56 216.216 335.563 217.227 335.468 217.099C334.805 216.215 334.82 215.906 334.435 215.715C333.754 215.378 333.014 216.002 331.737 216.619C329.11 217.888 328.341 217.131 327.128 218.2C326.515 218.74 326.186 219.772 325.553 221.813C324.669 224.669 324.227 226.097 324.654 227.46C325.09 228.85 325.731 228.547 326.678 230.509C327.732 232.692 327.368 233.961 328.364 234.461C329.134 234.848 330.371 234.602 330.838 233.896C331.637 232.689 329.571 231.056 330.275 229.154C330.708 227.986 332.043 227.1 332.861 227.347C333.787 227.626 333.855 229.292 334.435 229.267C334.932 229.244 335.277 228.005 335.335 227.798Z" fill="#2F2E41"/>
<path d="M328.926 235.929C330.657 233.98 337.708 235.997 338.37 239.091C338.642 240.364 337.637 240.901 337.92 242.366C338.334 244.509 340.678 244.363 342.418 246.544C344.887 249.641 342.343 252.669 345.116 257.837C345.708 258.941 346.208 259.872 347.252 260.773C349.648 262.84 351.878 262.131 353.098 264.048C354.01 265.481 353.636 267.248 353.548 267.661C353.188 269.358 352.212 269.772 351.524 271.162C350.38 273.475 351.675 275.174 351.749 277.938C351.841 281.396 350.011 286.19 346.352 287.762C342.242 289.529 337.284 286.603 334.885 283.697C333.453 281.963 333.038 280.364 332.412 278.389C329.613 269.566 328.031 270.364 325.891 263.37C323.444 255.375 322.963 246.008 325.891 243.044C326.279 242.651 327.347 241.743 328.027 240.107C328.942 237.907 328.151 236.802 328.926 235.929Z" fill="#1D84B5"/>
<path d="M354.504 281.312C355.846 283.025 356.055 285.109 354.969 285.967C353.884 286.824 351.916 286.131 350.574 284.417C350.028 283.74 349.652 282.942 349.477 282.089L343.882 274.759L346.773 272.544L352.508 279.693C353.293 280.065 353.977 280.62 354.504 281.312Z" fill="#FFB6B6"/>
<path d="M334.012 243.359C334.261 243.303 336.44 242.85 338.153 244.181C340.12 245.71 340.025 248.469 339.991 249.437C339.914 251.673 339.042 252.037 338.523 254.23C337.552 258.333 339.401 262.145 340.422 264.252C340.776 264.981 341.912 267.212 344.172 269.615C348.57 274.288 352.493 276.747 352.493 276.747L348.278 280.51C348.278 280.51 341.564 278.454 337.015 274.336C332.349 270.112 325.172 255.166 323.685 251.525C323.557 251.212 325.371 256.309 328.836 248.842C329.627 247.139 331.075 244.018 334.012 243.359Z" fill="#1D84B5"/>
<path d="M441.888 239.853L436.856 237.459C438.92 240.352 440.698 244.871 441.65 248.467C443.263 245.117 445.862 241.019 448.434 238.571L443.115 239.945C446.393 223.811 458.72 212.229 472.836 212.229L473.036 211.646C458.291 211.646 445.234 223.068 441.888 239.853Z" fill="#3F3D56"/>
<path d="M465.051 264.436H433.253C431.905 264.436 430.807 263.334 430.807 261.979C430.807 260.625 431.905 259.522 433.253 259.522H465.051C466.399 259.522 467.497 260.625 467.497 261.979C467.497 263.334 466.399 264.436 465.051 264.436Z" fill="#1D84B5"/>
<path d="M507.361 264.436H475.564C474.215 264.436 473.118 263.334 473.118 261.979C473.118 260.625 474.215 259.522 475.564 259.522H507.361C508.709 259.522 509.807 260.625 509.807 261.979C509.807 263.334 508.709 264.436 507.361 264.436Z" fill="#E6E6E6"/>
<path d="M488.537 197.601H457.629C456.85 197.601 456.216 196.964 456.216 196.181C456.216 195.399 456.85 194.762 457.629 194.762H488.537C489.316 194.762 489.95 195.399 489.95 196.181C489.95 196.964 489.316 197.601 488.537 197.601Z" fill="#3F3D56"/>
<path d="M505.123 212.745H441.043C440.264 212.745 439.63 212.108 439.63 211.325C439.63 210.543 440.264 209.906 441.043 209.906H505.123C505.902 209.906 506.536 210.543 506.536 211.325C506.536 212.108 505.902 212.745 505.123 212.745Z" fill="#3F3D56"/>
<path d="M334.298 349.307C334.298 349.562 334.502 349.766 334.756 349.766H535.649C535.903 349.766 536.106 349.562 536.106 349.307C536.106 349.052 535.903 348.847 535.649 348.847H334.756C334.502 348.847 334.298 349.052 334.298 349.307Z" fill="#3F3D56"/>
<path d="M383.627 240.323C383.573 240.323 383.519 240.321 383.464 240.317C380.245 240.11 369.23 238.544 362.655 227.124C362.113 226.184 362.22 224.989 362.92 224.15L375.098 209.577C375.596 208.981 376.365 208.637 377.144 208.647C377.683 208.659 378.958 208.796 379.206 209.783C380.668 215.616 386.846 222.474 394.275 223.383C395.028 223.475 395.632 224.149 395.892 225.188C396.094 225.996 395.907 226.829 395.378 227.473L385.623 239.372C385.127 239.976 384.4 240.323 383.627 240.323ZM377.098 209.233C376.503 209.233 375.924 209.501 375.545 209.953L363.368 224.527C362.824 225.177 362.741 226.103 363.16 226.831C369.591 237.999 380.356 239.529 383.502 239.732C384.144 239.775 384.761 239.5 385.172 238.999L394.928 227.1C395.337 226.601 395.482 225.956 395.325 225.33C395.172 224.718 394.797 224.037 394.204 223.965C386.529 223.026 380.149 215.947 378.639 209.926C378.517 209.439 377.781 209.249 377.132 209.233C377.121 209.233 377.109 209.233 377.098 209.233Z" fill="#3F3D56"/>
<path d="M370.035 227.604L378.814 218.613C379.414 217.998 378.474 217.052 377.873 217.667L369.094 226.659C368.493 227.274 369.434 228.219 370.035 227.604Z" fill="#E6E6E6"/>
<path d="M375.334 230.137C377.757 227.956 379.862 225.43 381.586 222.658C382.042 221.927 380.891 221.255 380.437 221.984C378.771 224.663 376.735 227.083 374.393 229.192C373.754 229.767 374.697 230.71 375.334 230.137Z" fill="#E6E6E6"/>
<path d="M380.109 233.171C382.316 230.716 384.193 227.976 385.672 225.021C386.055 224.255 384.908 223.577 384.523 224.347C383.094 227.202 381.3 229.853 379.168 232.225C378.596 232.862 379.534 233.811 380.109 233.171Z" fill="#E6E6E6"/>
<path d="M376.348 216.983C381.237 216.983 385.2 213.086 385.2 208.279C385.2 203.473 381.237 199.576 376.348 199.576C371.459 199.576 367.496 203.473 367.496 208.279C367.496 213.086 371.459 216.983 376.348 216.983Z" fill="#1D84B5"/>
<path d="M380.954 212.408C379.592 209.046 378.231 205.684 376.87 202.322C376.682 201.858 376.093 201.842 375.909 202.322C374.564 205.847 373.685 209.525 373.263 213.275C373.191 213.914 374.187 213.908 374.259 213.275C374.424 211.807 374.669 210.351 374.985 208.91C376.106 208.969 377.237 208.843 378.32 208.542C378.878 209.919 379.435 211.297 379.993 212.674C380.232 213.263 381.195 213.005 380.954 212.408ZM375.211 207.921C375.546 206.542 375.948 205.179 376.415 203.837L377.942 207.607C377.047 207.843 376.133 207.948 375.211 207.921Z" fill="white"/>
</svg>
