<svg xmlns="http://www.w3.org/2000/svg" xmlns:xlink="http://www.w3.org/1999/xlink" width="500" zoomAndPan="magnify" viewBox="0 0 375 374.999991" height="500" preserveAspectRatio="xMidYMid meet" version="1.0"><defs><clipPath id="ce018aad05"><path d="M 20.453125 0 L 354.203125 0 L 354.203125 325 L 20.453125 325 Z M 20.453125 0 " clip-rule="nonzero"/></clipPath></defs><path fill="#ffffff" d="M 130.367188 153.1875 C 125.414062 205.0625 120.757812 228.789062 111.074219 278.488281 C 134.648438 296.355469 180.96875 375.183594 180.96875 375.183594 L 180.96875 265.648438 C 169.179688 262.644531 160.398438 253.113281 160.398438 239.222656 C 160.398438 225.484375 172.558594 212.195312 187.574219 212.195312 C 202.589844 212.195312 214.601562 225.558594 214.601562 239.222656 C 214.601562 253.035156 205.894531 262.644531 194.179688 265.648438 L 194.179688 375.183594 C 194.179688 375.183594 240.503906 296.355469 264.074219 278.488281 C 254.390625 228.789062 249.738281 205.0625 244.78125 153.1875 L 187.574219 178.789062 Z M 130.367188 153.1875 " fill-opacity="1" fill-rule="nonzero"/><path fill="#ffffff" d="M 187.574219 72.179688 L 292.378906 119.175781 L 187.574219 166.175781 L 103.789062 128.636719 L 109.121094 176.007812 L 101.988281 185.394531 L 94.78125 176.007812 L 100.335938 127.0625 L 82.695312 119.175781 Z M 187.574219 72.179688 " fill-opacity="1" fill-rule="nonzero"/><g clip-path="url(#ce018aad05)"><path fill="#ffffff" d="M 187.574219 -0.191406 C 233.671875 -0.191406 275.488281 18.578125 305.59375 48.757812 C 335.847656 79.011719 354.542969 120.828125 354.542969 166.925781 C 354.542969 213.019531 335.921875 254.839844 305.59375 284.941406 C 288.25 302.4375 267.003906 316.023438 243.207031 324.433594 C 248.011719 317.675781 252.890625 310.996094 258.070312 304.613281 C 261.074219 300.859375 264.828125 296.355469 268.65625 292.675781 C 277.589844 286.820312 285.847656 280.136719 293.355469 272.707031 C 320.382812 245.527344 337.125 208.140625 337.125 166.851562 C 337.125 125.558594 320.457031 88.023438 293.355469 60.996094 C 266.179688 33.96875 228.789062 17.226562 187.5 17.226562 C 146.207031 17.226562 108.671875 33.890625 81.644531 60.996094 C 54.617188 88.097656 37.800781 125.558594 37.800781 166.851562 C 37.800781 208.140625 54.617188 245.527344 81.644531 272.707031 C 89.152344 280.0625 97.410156 286.820312 106.34375 292.675781 C 110.097656 296.28125 113.851562 300.859375 116.929688 304.613281 C 122.109375 310.917969 126.988281 317.675781 131.71875 324.433594 C 107.996094 316.023438 86.824219 302.4375 69.332031 284.941406 C 39.226562 254.839844 20.457031 213.019531 20.457031 166.925781 C 20.457031 120.828125 39.226562 79.011719 69.40625 48.757812 C 99.660156 18.578125 141.476562 -0.191406 187.574219 -0.191406 Z M 187.574219 -0.191406 " fill-opacity="1" fill-rule="nonzero"/></g></svg>